<mxfile host="app.diagrams.net" modified="2023-04-24T09:18:57.697Z" agent="Mozilla/5.0 (Windows NT 10.0; Win64; x64) AppleWebKit/537.36 (KHTML, like Gecko) Chrome/112.0.0.0 Safari/537.36" etag="-SDnTHGj39riVaK6QnIH" version="21.2.1" type="github">
  <diagram name="Page-1" id="fbqA8ias_ugepq-lMvmh">
    <mxGraphModel dx="1281" dy="964" grid="1" gridSize="10" guides="1" tooltips="1" connect="1" arrows="1" fold="1" page="1" pageScale="1" pageWidth="827" pageHeight="1169" math="0" shadow="0">
      <root>
        <mxCell id="0" />
        <mxCell id="1" parent="0" />
        <mxCell id="U2Ot6Lk4ccW_QLP-LlaI-1" value="&lt;ol&gt;&lt;li&gt;I love heroes&lt;/li&gt;&lt;li&gt;You love heroes&lt;/li&gt;&lt;li&gt;They love heroes&lt;/li&gt;&lt;/ol&gt;" style="whiteSpace=wrap;html=1;align=left;" parent="1" vertex="1">
          <mxGeometry x="330" y="80" width="160" height="60" as="geometry" />
        </mxCell>
      </root>
    </mxGraphModel>
  </diagram>
</mxfile>
